Patient4_TMGait_0pt3_02_left_13_EMG.mot
version=1
nRows=39
nColumns=33
inDegrees=no
endheader
time	1LAddLong	2LGlutMax	3LGlutMed	4LIliopsoas	5LSemiMemb	6LBicFemLong	7LRecFem	8LVastMed	9LVastLat	10LGasMed	11LTibAnt	12lTibPost	13LPeroneusLong	14LSol	15LExtDigLong	16LFlexDigLong	17RAddLong	18RGlutMax	19RGlutMed	20RIliopsoas	21RSemiMemb	22RBicFemLong	23RRecFem	24RVastMed	25RVastLat	26RGasMed	27RTibAnt	28RTibPost	29RPeroneusLong	30RSol	31RExtDigLong	32RFlexDigLong
26.56	0.003662	-0.046234	-0.01297	0.013123	0.000458	0.10666	0.079651	-0.007782	-0.03418	0.055542	0.005951	-0.011902	-0.052185	0.26306	0.019226	0.004425	0.073547	-0.037231	0.063324	-0.003204	-0.024109	-0.11307	-0.086365	0.044708	0.052032	0.000916	0.044403	-0.011292	-0.13626	0.11704	0.00351	-0.012207
26.561	0.005951	-0.088959	-0.000153	0.014801	0.006561	-0.18585	0.088806	-0.002289	-0.031891	0.019531	0.003967	-0.001678	0.094147	0.23789	0.009918	-0.023804	0.047607	-0.016632	0.22903	0.061035	0.031281	-0.10162	-0.063019	0.028687	0.069275	0.004578	0.098419	-0.003967	0.067139	0.080261	0.000763	-0.004578
26.562	0.010223	-0.098419	0.00824	0.010986	0.009308	-0.31799	0.015564	0.005798	0.003662	0.031738	0.011139	-0.002594	0.092163	0.14832	-0.009003	-0.055695	0.027618	-0.007324	0.24246	0.059662	0.035248	-0.086823	-0.054321	0.067749	0.069122	0.012817	0.007629	-0.011749	0.24368	0.040588	0.001678	-0.010681
26.563	0.011597	-0.10147	-0.04364	0.00473	0.004272	-0.28458	-0.048676	0.00351	0.049896	-0.056763	0.014191	0.00351	-0.009308	0.19821	-0.005188	-0.052795	-0.041962	-0.008545	0.19531	0.011749	0.017548	0.02533	-0.12802	0.056152	0.041656	-0.001373	-0.13184	-0.006866	0.40527	0.015411	0.00351	-0.015106
26.564	0.014496	-0.068207	-0.016632	0.010223	-0.02655	0.11322	-0.088654	-0.002594	0.11322	-0.13092	0.017395	0.003052	-0.02533	0.15701	0	-0.056152	-0.082703	-0.019073	0.29846	-0.064087	-0.093689	0.10651	-0.10544	0.097351	0.11856	0.00946	-0.27161	-0.01297	0.46524	0.011749	0.001984	-0.00824
26.565	0.005341	-0.096893	0.004883	0.006409	-0.016479	0.30685	-0.087585	-0.003662	0.14252	-0.15656	0.004272	0.019836	-0.086365	0.037231	-0.002594	-0.048676	-0.073853	-0.013733	0.16815	-0.09552	-0.074005	0.1033	-0.070343	0.034027	0.14679	0.012512	-0.17258	-0.010223	0.1001	0.036774	0.001221	-0.002747
26.566	-0.007019	-0.093994	-0.000458	0.010223	0.006104	0.3418	-0.083771	-0.018768	0.077515	-0.11078	0.00351	0.016937	-0.002899	0.014191	-0.00412	-0.039215	-0.054169	-0.000305	0.092926	-0.014954	-0.14618	0.15793	-0.083466	0.018768	0.081787	-0.00885	-0.10834	-0.012207	-0.31174	0.071411	-0.002289	-0.007019
26.567	0.000458	-0.11917	-0.10529	0.003204	0.014343	0.24017	-0.049591	-0.021057	0.042114	-0.067902	0.000763	0.017853	0.30975	0.007782	0.005035	-0.061646	-0.042267	-0.044861	0.11566	0.054321	-0.060425	0.23575	-0.019226	-0.047913	0.011444	-0.023804	-0.025787	-0.013733	-0.19699	0.072632	0.004272	-0.010071
26.568	-0.005341	-0.10727	-0.17151	-0.002594	-0.004883	0.084534	-0.032196	-0.020294	0.02121	-0.055542	0.01236	0.016632	0.24811	0.06012	0.019836	-0.047302	-0.037842	-0.035095	0.13306	0.11673	-0.066833	0.13458	0.033569	-0.075989	-0.094299	-0.03952	0.19836	-0.00824	-0.21622	0.076904	-0.010376	0.004883
26.569	-0.001984	-0.068207	-0.12131	-0.002441	-0.001526	-0.37201	-0.030365	-0.016327	0.00946	-0.068665	0.009918	0.012512	0.12024	0.079651	0.017242	-0.034485	-0.031128	-0.049133	0.076294	0.068054	-0.066071	0.034637	0.067139	-0.063171	-0.16693	-0.028992	0.26276	-0.010223	-0.16174	0.065155	-0.001526	-0.002747
26.57	0.010834	-0.058746	0.040894	-0.004578	0.009003	-0.81879	-0.061798	-0.022583	0.03952	-0.074615	-0.007935	0.003815	-0.19959	0.052643	0.020905	-0.03952	-0.02533	0.00473	0.067291	0.026703	-0.079346	0.036469	0.10956	-0.084229	-0.16174	-0.007629	0.086517	-0.010529	0.053864	0.052948	0.010986	-0.000763
26.571	0.004883	-0.061951	0.018616	-0.00473	0.045166	-0.53726	-0.021057	-0.015869	0.018463	-0.014496	0.016632	0.023041	-0.43625	0.001831	0.014496	-0.031281	-0.027161	-0.022736	0.070343	-0.052032	-0.16876	0.032501	0.11765	-0.085907	-0.16235	0.028381	-0.007629	-0.015411	0.14282	0.056763	0.003967	-0.006409
26.572	0.016785	-0.095367	-0.065765	0.005188	0.041199	-0.24719	-0.033722	-0.009308	0.004272	0.034027	0.024567	0.006561	0.031281	-0.032043	-0.000305	-0.010834	-0.008087	-0.001678	0.020599	-0.052185	-0.1033	-0.028839	0.12268	-0.018005	-0.13931	0.037842	0.021362	-0.002899	0.13962	0.065002	0.005646	-0.015564
26.573	-0.006409	-0.068207	-0.028687	0.018463	0.013275	-0.11108	0.018158	-0.011444	-0.007019	0.044708	0.054932	0.011749	0.017242	0.041962	0.002136	-0.006866	-0.00351	-0.038605	-0.039825	-0.052948	-0.088348	-0.050201	0.036774	0.064545	-0.10498	0.02655	0.066681	0.00351	0.026398	0.070953	0.002899	-0.024872
26.574	-0.006714	-0.084686	-0.032501	0.016785	-0.003815	0.032806	-0.00885	-0.004578	-0.000916	0.061188	0.009003	0.010986	0.31723	0.05127	-0.012512	0.003052	0.003815	0.033722	-0.019073	-0.063324	-0.075684	-0.043182	-0.15717	0.12787	-0.015106	0.009918	0.069733	-0.001984	0.037842	0.070038	0.002899	-0.019531
26.575	-0.00351	-0.053253	-0.0383	-0.008392	-0.037231	0.10559	-0.036163	-0.003357	0.011749	0.08667	-0.023499	0.008392	0.22446	0.079193	-0.01358	0.024261	0.0177	0.016785	0.29282	-0.049744	-0.070953	-0.052338	-0.21118	0.075378	-0.001068	0.011444	0.022736	-0.008698	0.12894	0.033875	0.004883	-0.016022
26.576	0.013733	-0.07843	-0.076447	0.000763	-0.024567	0.081177	-0.039215	-0.010834	0.014801	0.17914	-0.019073	0.014038	0.15762	0.14725	0.015259	0.038147	0.020294	-0.045471	0.19898	0.031891	-0.075378	-0.022583	-0.18234	0.056915	-0.045319	0.005188	0.016785	0.005493	0.10727	0.000458	0.006104	-0.018921
26.577	0.013885	-0.11108	-0.075684	-0.001984	0.032959	0.1236	-0.006256	-0.006409	0.029602	0.20172	0.020905	0.014191	-0.49957	0.10803	0.005188	0.035248	0.00885	0.014343	-0.015259	0.15182	-0.10376	-0.030365	-0.16434	0.070648	-0.103	0.002747	0.093689	-0.006866	-0.007782	-0.004272	0.003204	-0.007935
26.578	0.013123	-0.12787	-0.056	0.012207	0.00473	0.1326	-0.018921	-0.007324	0.012665	0.080109	0.017242	0.015869	-0.51056	0.012817	-0.036469	0.035248	-0.006256	-0.034637	-0.010834	0.1741	-0.14496	-0.001984	-0.13687	-0.00946	-0.071106	-0.001831	0.12207	-0.006256	-0.033417	0.011749	0.006104	-0.019836
26.579	0.007782	-0.13001	0.012817	0.014954	-0.002289	0.1181	-0.002136	-0.008545	-0.003052	-0.10468	0.017242	0.007935	0.048981	-0.061188	-0.092163	0.057068	-0.010376	0.003967	0.11536	0.057831	-0.06073	-0.011902	-0.03952	0.032043	0.006866	-0.00061	0.11643	-0.005646	-0.017853	0.018311	0.003967	-0.011292
26.58	0.019073	-0.11688	0.019684	0.005798	0.02533	-0.16861	0.003815	-0.010376	-0.066833	-0.45334	0.00412	0.011597	0.098724	-0.075226	-0.081329	0.051422	-0.005493	-0.001526	0.17517	0.021515	0.023499	-0.051575	0.002441	0.012207	0.040436	0.010681	0.058746	-0.005341	0.01358	-0.005951	0.001221	-0.01358
26.581	0.019989	-0.096436	-0.002899	0.004578	-0.005951	-0.12863	0.066681	-0.009613	-0.085754	-0.51392	-0.007019	0.007324	0.10376	0.032654	-0.018921	0.04364	-0.001984	0.010834	0.10574	-0.019531	0.026398	-0.037079	-0.00351	0.002289	0.006256	-0.000153	-0.13901	-0.010529	0.033569	-0.012512	0.006561	-0.013123
26.582	0.013275	-0.09552	-0.041962	0.022736	-0.016479	0.11124	0.060272	0.000458	-0.065613	-0.45425	0.000305	0.006866	0.061188	0.019836	-0.00946	0.051727	0.00824	-0.042419	0.023346	-0.045013	0.054474	-0.042267	0.00351	-0.074463	-0.028839	-0.001984	-0.14984	-0.004883	-0.020294	-0.018463	0.009155	-0.004883
26.583	0.003357	-0.066376	0.049591	0.007629	-0.036621	0.22125	0.041351	-0.006409	0.000916	0.020905	0.002136	0.006256	-0.074921	-0.018158	0.032349	0.061493	-0.004272	-0.035553	0.080261	-0.021362	0.000305	0.00351	0.032349	-0.019684	-0.037079	-0.010071	0.16373	-0.010681	-0.059967	-0.019531	0.002136	-0.00824
26.584	0.005951	-0.039825	0.005646	0	-0.045776	0.21393	0.03006	0.003052	0.024109	0.47516	-0.005035	0.007324	-0.046234	-0.056763	0.072937	0.057373	-0.015717	0.019531	0.017548	-0.080566	-0.16083	0.041809	0.015717	-0.074768	-0.029755	-0.008698	0.24643	-0.00412	-0.053101	-0.070648	0.003204	-0.009918
26.585	0.007324	-0.029144	-0.028076	0.005188	-0.059662	-0.000763	-0.053101	0.001526	0.13687	0.58945	0.006866	0.008392	-0.13275	-0.15595	0.068817	0.065765	0.001373	0.002441	0.2034	-0.050354	-0.049286	0.026703	-0.050659	-0.052948	-0.00061	-0.001984	0.44525	-0.00473	-0.014343	-0.059052	0.004272	-0.00412
26.586	0.009308	-0.020599	-0.019531	0.00061	-0.009155	-0.10223	-0.10208	0.009155	0.19424	0.49835	0.001984	0.010834	0.10269	-0.21057	0.04303	0.062866	0.009613	0.015717	0.26535	0.028381	-0.021362	0.011749	-0.010071	-0.1384	0.077057	-0.001068	0.59418	-0.004883	-0.079651	-0.00061	0.002747	-0.010834
26.587	0.009308	-0.024109	-0.030518	0.00824	0.027771	-0.17822	-0.093536	0.004272	0.13321	0.13214	0.004425	0.023499	0.12604	-0.099335	0.027313	0.065002	0.014038	-0.055084	0.36133	0.082855	-0.042267	-0.002136	-0.055237	-0.070953	0.13031	-0.002747	0.17517	-0.003967	-0.003662	-0.024109	0.001526	-0.009155
26.588	0.003815	-0.052032	0.033569	0.012665	-0.011139	-0.16998	-0.046539	0.011444	0.059052	-0.31433	-0.007782	0.019836	-0.033875	0.01709	0.010834	0.062561	0.01358	0.020905	0.70923	0.057983	-0.090332	0.018768	0.025787	0.027924	0.076752	-0.003357	-0.45349	-0.005341	0.10941	-0.018005	0.002747	-0.015717
26.589	0.001068	-0.042419	0.036011	0.010529	0.017548	-0.14511	-0.036469	-0.01236	0.047913	-0.31509	-0.025787	0.022888	-0.050049	0.03006	-0.011597	0.043793	0.025024	-0.012817	0.39032	0.024261	-0.19318	0.008545	0.036163	0.014191	0.06134	-0.007324	0.06073	-0.011902	0.10284	0.001221	0.003967	-0.019684
26.59	-0.006866	-0.023499	0.037079	0.009308	0.010986	-0.073242	-0.009766	-0.016479	-0.029602	-0.20721	-0.031433	0.027618	-0.009003	0.039063	-0.025177	0.051727	0.027466	-0.032501	0.34256	0.012054	-0.31799	0.033417	-0.011597	-0.048523	0.093536	-0.007629	0.31006	-0.006561	0.12146	-0.001831	0.003662	-0.018005
26.591	-0.00473	-0.043945	-0.00824	-0.003662	0.017395	-0.06897	-0.023193	-0.009003	-0.11643	-0.12344	-0.029449	0.039368	0.020294	0.099182	-0.040436	0.044403	0.007935	-0.050659	0.40894	0.02182	-0.31357	0.079193	-0.081329	-0.028534	0.10315	-0.011749	-0.07843	-0.006256	0.14328	0.009155	0.00473	-0.021362
26.592	-0.001373	-0.04776	-0.018158	0.009155	0.013275	-0.054626	-0.016632	-0.014648	-0.097656	-0.07782	0.012054	0.027924	0.007172	0.15228	-0.022125	0.036621	-0.019684	-0.034332	0.47699	0.013123	-0.1004	0.07431	-0.060272	0.032043	0.14008	-0.014648	-0.37705	-0.006866	0.093842	-0.00351	0.000458	-0.016327
26.593	0.009155	-0.039978	-0.005035	0.003815	0.006866	-0.12528	-0.006409	-0.013275	-0.046844	-0.035553	0.04776	0.009613	0.030212	0.10254	0.045624	0.027771	-0.036774	-0.10635	0.59235	0.040131	0.24094	0.080109	-0.012054	-0.000153	0.10971	0.002289	-0.15961	-0.010376	0.12329	-0.000153	0.001678	-0.010834
26.594	0.013885	-0.089111	0.1033	-0.001526	0.001221	-0.058899	0.005035	-0.016327	-0.045471	0.001221	0.034943	0.013123	0.080414	0.078125	0.11948	0.034637	-0.016785	-0.055389	0.33814	0.007935	0.35187	0.10269	0.041809	0.097351	0.11017	0.005341	-0.40512	-0.009613	0.12116	0.047302	0.001221	-0.015259
26.595	0.007477	-0.048676	-0.011902	0.001831	0.011139	0.067444	0.033722	-0.011749	-0.041351	0.014496	0.019989	0.007172	0.014801	0.081329	0.10941	0.016937	-0.029297	-0.065918	0.25391	-0.066528	0.32562	0.070038	0.006866	0.13947	0.050049	0.004425	-0.40848	-0.007019	0.087585	0.10391	0.000763	-0.014496
26.596	0.001373	-0.000458	-0.043945	0.007324	0.009613	0.33554	0.045471	-0.000458	-0.013428	0.00412	0.027924	0.015411	-0.006714	0.12375	-0.030212	0.007019	-0.048523	-0.031433	0.23941	-0.049438	0.17746	0.06424	-0.035248	0.095673	0.027008	0.008087	-0.15457	-0.011444	0.053101	0.17716	-0.001984	-0.015564
26.597	0.001068	0.004272	-0.042725	-0.002136	-0.001526	0.33066	-0.004272	-0.004272	0.016022	-0.061188	-0.04303	0.011444	0.13916	0.14618	-0.067139	0.010071	-0.021973	-0.062103	0.32303	-0.048828	0.062408	0.018921	-0.012817	0.017548	0.030823	0.006866	-0.087433	-0.009918	0.01709	0.1001	-0.000458	-0.010223
26.598	-0.011597	-0.001678	-0.06546	0.011444	-0.031128	0.011902	-0.063477	-0.016174	0.047913	-0.082397	-0.044098	0.007629	0.05722	0.14908	-0.053101	-0.010986	-0.01358	-0.046539	0.49408	-0.023041	-0.10498	-0.038757	-0.059967	0.014496	-0.008698	0.004883	-0.036926	-0.013733	0.018463	0.06424	0.000763	-0.010071
